<svg xmlns="http://www.w3.org/2000/svg" xmlns:xlink="http://www.w3.org/1999/xlink" version="1.1" id="Layer_1" x="0px" y="0px" viewBox="0 0 1000 1000" style="enable-background:new 0 0 1000 1000;" xml:space="preserve">
<style xmlns="http://www.w3.org/2000/svg" type="text/css">
	.st0{fill:#CCE9FF;}
	.st1{opacity:0.65;fill:#6695F2;}
	.st2{fill:#FFFFFF;}
	.st3{opacity:0.75;fill:none;stroke:#E0EBFC;stroke-linejoin:round;stroke-miterlimit:10;}
	.st4{fill:#14505c;}
	.st5{opacity:0.5;fill:#F3F3F3;}
	.st6{fill:#F3F3F3;}
	.st7{opacity:0.3;fill:#CCE9FF;}
	.st8{opacity:0.5;fill:#2A94F5;}
	.st9{opacity:0.5;fill:#0C4772;}
</style>
<path xmlns="http://www.w3.org/2000/svg" class="st0" d="M614.8,730.2H388.3c0,0,9.4,144.3-35.5,144.3c14.4,0,283.2,0,297.5,0C605.4,874.6,614.8,730.2,614.8,730.2z"/>
<path xmlns="http://www.w3.org/2000/svg" class="st1" d="M385.7,817l228.4-46.3c-0.4-22.9,0.7-40.5,0.7-40.5H388.3C388.3,730.2,391.3,776.8,385.7,817z"/>
<path xmlns="http://www.w3.org/2000/svg" class="st0" d="M941.2,773.8H61.9c-8.3,0-15-6.7-15-15V192.1c0-8.3,6.7-15,15-15h879.3c8.3,0,15,6.7,15,15v566.7  C956.2,767,949.5,773.8,941.2,773.8z"/>
<path xmlns="http://www.w3.org/2000/svg" class="st2" d="M924,752.6h-845c-3.7,0-6.7-3-6.7-6.7V204.9c0-3.7,3-6.7,6.7-6.7h845c3.7,0,6.7,3,6.7,6.7V746  C930.7,749.6,927.7,752.6,924,752.6z"/>
<rect xmlns="http://www.w3.org/2000/svg" x="312.3" y="870.5" class="st0" width="378.5" height="21.1"/>
<line xmlns="http://www.w3.org/2000/svg" class="st3" x1="762.6" y1="294.6" x2="797.3" y2="294.6"/>
<path xmlns="http://www.w3.org/2000/svg" class="st2" d="M760.8,518.6c47.2,0,85.5,38.3,85.5,85.5c0,47.2-38.3,85.5-85.5,85.5c-47.2,0-85.5-38.3-85.5-85.5  C675.2,556.9,713.5,518.6,760.8,518.6 M760.8,508.4c-52.8,0-95.8,43-95.8,95.8c0,52.8,43,95.8,95.8,95.8c52.8,0,95.8-43,95.8-95.8  C856.6,551.3,813.6,508.4,760.8,508.4L760.8,508.4z"/>
<path xmlns="http://www.w3.org/2000/svg" class="st4" d="M752.6,710.1H247.4c-24.6,0-44.7-20.1-44.7-44.7v-533c0-24.6,20.1-44.7,44.7-44.7h505.2  c24.6,0,44.7,20.1,44.7,44.7v533C797.3,690,777.2,710.1,752.6,710.1z"/>
<circle xmlns="http://www.w3.org/2000/svg" class="st5" cx="489.4" cy="157.1" r="24.3"/>
<circle xmlns="http://www.w3.org/2000/svg" class="st5" cx="513.7" cy="145.1" r="24.3"/>
<g xmlns="http://www.w3.org/2000/svg">
	<path class="st6" d="M312.8,173.7h-60.9c-6.2,0-11.3-5.1-11.3-11.3v0c0-6.2,5.1-11.3,11.3-11.3h60.9c6.2,0,11.3,5.1,11.3,11.3v0   C324.2,168.6,319.1,173.7,312.8,173.7z"/>
	<path class="st6" d="M415.5,173.7h-60.9c-6.2,0-11.3-5.1-11.3-11.3v0c0-6.2,5.1-11.3,11.3-11.3h60.9c6.2,0,11.3,5.1,11.3,11.3v0   C426.9,168.6,421.8,173.7,415.5,173.7z"/>
</g>
<path xmlns="http://www.w3.org/2000/svg" class="st6" d="M645.7,173.7h-60.9c-6.2,0-11.3-5.1-11.3-11.3v0c0-6.2,5.1-11.3,11.3-11.3h60.9c6.2,0,11.3,5.1,11.3,11.3v0  C657,168.6,651.9,173.7,645.7,173.7z"/>
<path xmlns="http://www.w3.org/2000/svg" class="st6" d="M748.4,173.7h-60.9c-6.2,0-11.3-5.1-11.3-11.3v0c0-6.2,5.1-11.3,11.3-11.3h60.9c6.2,0,11.3,5.1,11.3,11.3v0  C759.7,168.6,754.6,173.7,748.4,173.7z"/>
<rect xmlns="http://www.w3.org/2000/svg" x="459" y="225.4" class="st7" width="338.3" height="194.4"/>
<rect xmlns="http://www.w3.org/2000/svg" x="220" y="465.5" class="st0" width="125.3" height="90.6"/>
<rect xmlns="http://www.w3.org/2000/svg" x="364.3" y="465.5" class="st8" width="125.3" height="90.6"/>
<rect xmlns="http://www.w3.org/2000/svg" x="508.6" y="465.5" class="st9" width="125.3" height="90.6"/>
<rect xmlns="http://www.w3.org/2000/svg" x="652.9" y="465.5" class="st0" width="125.3" height="90.6"/>
<rect xmlns="http://www.w3.org/2000/svg" x="220" y="573.8" class="st9" width="125.3" height="90.6"/>
<rect xmlns="http://www.w3.org/2000/svg" x="364.3" y="573.8" class="st0" width="125.3" height="90.6"/>
<rect xmlns="http://www.w3.org/2000/svg" x="508.6" y="573.8" class="st8" width="125.3" height="90.6"/>
<rect xmlns="http://www.w3.org/2000/svg" x="652.9" y="573.8" class="st0" width="125.3" height="90.6"/>
<rect xmlns="http://www.w3.org/2000/svg" x="465.1" y="193" class="st6" width="75.3" height="5.3"/>
<circle xmlns="http://www.w3.org/2000/svg" class="st2" cx="337.3" cy="327.1" r="97.3"/>
<g xmlns="http://www.w3.org/2000/svg">
	<circle class="st0" cx="337.3" cy="295.8" r="27.5"/>
	<path class="st0" d="M359.3,321.9c-6,5-13.7,8.1-22.1,8.1c-8.4,0-16.1-3-22.1-8.1c-7.5,5.9-12.4,15-12.4,25.3v30.6   c0,3.5,2.8,6.3,6.3,6.3h56.4c3.5,0,6.3-2.8,6.3-6.3v-30.6C371.7,336.9,366.9,327.7,359.3,321.9z"/>
</g>
<g xmlns="http://www.w3.org/2000/svg">
	<path class="st6" d="M725.7,291.7H532.8c-2.3,0-4.2-1.9-4.2-4.2l0,0c0-2.3,1.9-4.2,4.2-4.2h192.9c2.3,0,4.2,1.9,4.2,4.2l0,0   C729.9,289.8,728,291.7,725.7,291.7z"/>
	<path class="st6" d="M725.7,325.9H532.8c-2.3,0-4.2-1.9-4.2-4.2l0,0c0-2.3,1.9-4.2,4.2-4.2h192.9c2.3,0,4.2,1.9,4.2,4.2l0,0   C729.9,324,728,325.9,725.7,325.9z"/>
	<path class="st6" d="M725.7,360.2H532.8c-2.3,0-4.2-1.9-4.2-4.2l0,0c0-2.3,1.9-4.2,4.2-4.2h192.9c2.3,0,4.2,1.9,4.2,4.2l0,0   C729.9,358.2,728,360.2,725.7,360.2z"/>
</g>
</svg>